<svg xmlns="http://www.w3.org/2000/svg" width="68.105" height="68.113" viewBox="0 0 68.105 68.113">
  <g id="Layer_x0020_1" transform="translate(0 -0.001)">
    <g id="_1421344023328" transform="translate(0 0.001)">
      <path id="Path_2544" data-name="Path 2544" d="M67.086,42.3A34.045,34.045,0,1,1,42.286,1.02,34.047,34.047,0,0,1,67.086,42.3h0Z" transform="translate(0 -0.001)" fill="#f7931a"/>
      <path id="Path_2545" data-name="Path 2545" d="M1027.969,730.09c.678-4.532-2.773-6.968-7.491-8.594l1.531-6.139-3.737-.931-1.49,5.978c-.982-.245-1.991-.476-2.994-.7l1.5-6.017-3.735-.931-1.531,6.137c-.813-.185-1.612-.368-2.386-.561l0-.019-5.154-1.287-.994,3.992s2.773.636,2.714.675a1.989,1.989,0,0,1,1.742,2.174l-1.744,6.994a3.029,3.029,0,0,1,.389.125c-.125-.031-.257-.065-.4-.1l-2.444,9.8a1.36,1.36,0,0,1-1.712.888c.037.054-2.716-.678-2.716-.678l-1.855,4.278,4.863,1.212c.9.227,1.791.464,2.664.688l-1.546,6.21,3.733.931,1.531-6.144c1.02.277,2.009.532,2.978.773l-1.526,6.115,3.737.931,1.546-6.2c6.373,1.206,11.164.72,13.181-5.044,1.625-4.641-.081-7.317-3.433-9.063,2.442-.563,4.281-2.169,4.771-5.487h0Zm-8.538,11.973c-1.155,4.641-8.969,2.132-11.5,1.5l2.052-8.227c2.533.632,10.656,1.884,9.45,6.724Zm1.156-12.04c-1.054,4.221-7.557,2.077-9.667,1.551l1.861-7.461c2.11.526,8.9,1.507,7.806,5.91Z" transform="translate(-978.899 -700.885)" fill="#fff"/>
    </g>
  </g>
</svg>
