<svg id="litecoin-ltc-logo" xmlns="http://www.w3.org/2000/svg" width="60.113" height="60.113" viewBox="0 0 60.113 60.113">
  <circle id="Ellipse_1166" data-name="Ellipse 1166" cx="26.803" cy="26.803" r="26.803" transform="translate(3.253 3.253)" fill="#fff"/>
  <path id="Path_2578" data-name="Path 2578" d="M30.056,0A30.056,30.056,0,1,0,60.113,30.056h0A29.969,29.969,0,0,0,30.231,0Zm.509,31.075L27.436,41.628H44.175a.844.844,0,0,1,.873.815v.277l-1.456,5.022a1.084,1.084,0,0,1-1.092.8H16.884l4.294-14.628-4.8,1.456,1.092-3.348,4.8-1.456,6.04-20.523a1.1,1.1,0,0,1,1.092-.8h6.477a.844.844,0,0,1,.873.815v.277L31.657,27.655l4.8-1.456-1.019,3.493Z" fill="#345d9d"/>
</svg>
