<svg xmlns="http://www.w3.org/2000/svg" width="82.182" height="75.94" viewBox="0 0 82.182 75.94">
  <g id="Layer_2_1_" transform="translate(0.008 0.015)">
    <g id="Layer_1-2" transform="translate(-0.008 -0.015)">
      <path id="Path_2546" data-name="Path 2546" d="M102.767,153.337a5.535,5.535,0,0,0,5.216,5.829h.329a5.533,5.533,0,1,0-5.544-5.829Z" transform="translate(-80.237 -115.641)" fill="#0033ad"/>
      <path id="Path_2547" data-name="Path 2547" d="M1.878,165.486a1.789,1.789,0,1,0,1.687,1.885,1.775,1.775,0,0,0-1.687-1.885Z" transform="translate(0.008 -129.215)" fill="#0033ad"/>
      <path id="Path_2548" data-name="Path 2548" d="M91.938,13.327a1.793,1.793,0,0,0-1.622-3.2,1.794,1.794,0,0,0,1.622,3.2Z" transform="translate(-69.759 -7.758)" fill="#0033ad"/>
      <path id="Path_2549" data-name="Path 2549" d="M112.565,51.492a2.759,2.759,0,1,0-3.7-1.227A2.765,2.765,0,0,0,112.565,51.492Z" transform="translate(-84.775 -36.127)" fill="#0033ad"/>
      <path id="Path_2550" data-name="Path 2550" d="M36.911,85.9a2.279,2.279,0,1,0-.657-3.156h0A2.269,2.269,0,0,0,36.911,85.9Z" transform="translate(-28.012 -63.809)" fill="#0033ad"/>
      <path id="Path_2551" data-name="Path 2551" d="M45.5,160.983a2.765,2.765,0,1,0,2.608,2.915h0A2.767,2.767,0,0,0,45.5,160.983Z" transform="translate(-33.246 -125.698)" fill="#0033ad"/>
      <path id="Path_2552" data-name="Path 2552" d="M37.535,244.827a2.284,2.284,0,1,0,3.068,1.008h0a2.292,2.292,0,0,0-3.068-1.008Z" transform="translate(-28.329 -190.981)" fill="#0033ad"/>
      <path id="Path_2553" data-name="Path 2553" d="M85.739,113.631a3.246,3.246,0,1,0-.942-4.492,3.226,3.226,0,0,0,.942,4.492Z" transform="translate(-65.795 -84.066)" fill="#0033ad"/>
      <path id="Path_2554" data-name="Path 2554" d="M242.025,51.014a2.769,2.769,0,1,0-.789-3.835h0a2.738,2.738,0,0,0,.789,3.835Z" transform="translate(-188.004 -35.868)" fill="#0033ad"/>
      <path id="Path_2555" data-name="Path 2555" d="M269.432,12.85a1.79,1.79,0,1,0-.526-2.5,1.846,1.846,0,0,0,.526,2.5Z" transform="translate(-209.757 -7.456)" fill="#0033ad"/>
      <path id="Path_2556" data-name="Path 2556" d="M227.6,147.867a5.531,5.531,0,0,0-.614,11.045h.307a5.527,5.527,0,0,0,.307-11.045Z" transform="translate(-173.159 -115.453)" fill="#0033ad"/>
      <path id="Path_2557" data-name="Path 2557" d="M132.974,104.425a5.537,5.537,0,1,0,2.454-7.451,5.545,5.545,0,0,0-2.454,7.451Z" transform="translate(-103.366 -75.253)" fill="#0033ad"/>
      <path id="Path_2558" data-name="Path 2558" d="M321.151,85.465a2.279,2.279,0,1,0-3.09-1.008,2.317,2.317,0,0,0,3.09,1.008Z" transform="translate(-248.175 -63.372)" fill="#0033ad"/>
      <path id="Path_2559" data-name="Path 2559" d="M262.607,107.595a3.249,3.249,0,1,0,4.361,1.446A3.25,3.25,0,0,0,262.607,107.595Z" transform="translate(-203.656 -83.749)" fill="#0033ad"/>
      <path id="Path_2560" data-name="Path 2560" d="M178.836,4.547A2.309,2.309,0,0,0,181.247,2.4a2.284,2.284,0,0,0-4.558-.285,2.316,2.316,0,0,0,2.148,2.432Z" transform="translate(-137.964 0.015)" fill="#0033ad"/>
      <path id="Path_2561" data-name="Path 2561" d="M175.454,62.965a3.248,3.248,0,1,0-3.068-3.419,3.227,3.227,0,0,0,3.068,3.419Z" transform="translate(-134.604 -44.093)" fill="#0033ad"/>
      <path id="Path_2562" data-name="Path 2562" d="M89.222,215.768a3.249,3.249,0,1,0-4.361-1.446A3.25,3.25,0,0,0,89.222,215.768Z" transform="translate(-65.991 -163.674)" fill="#0033ad"/>
      <path id="Path_2563" data-name="Path 2563" d="M192.785,98.9a5.532,5.532,0,1,0,4.624-2.5A5.517,5.517,0,0,0,192.785,98.9Z" transform="translate(-149.831 -75.271)" fill="#0033ad"/>
      <path id="Path_2564" data-name="Path 2564" d="M202.557,202.528a5.532,5.532,0,1,0-2.454,7.429h0a5.506,5.506,0,0,0,2.476-7.385C202.579,202.55,202.579,202.55,202.557,202.528Z" transform="translate(-149.983 -155.76)" fill="#0033ad"/>
      <path id="Path_2565" data-name="Path 2565" d="M266.089,209.7a3.246,3.246,0,1,0,.942,4.492,3.226,3.226,0,0,0-.942-4.492Z" transform="translate(-203.85 -163.323)" fill="#0033ad"/>
      <path id="Path_2566" data-name="Path 2566" d="M312.706,163.3a2.765,2.765,0,1,0-2.915,2.608h0A2.782,2.782,0,0,0,312.706,163.3Z" transform="translate(-239.861 -125.23)" fill="#0033ad"/>
      <path id="Path_2567" data-name="Path 2567" d="M360.578,164.686a1.789,1.789,0,1,0,1.687,1.885A1.8,1.8,0,0,0,360.578,164.686Z" transform="translate(-280.085 -128.59)" fill="#0033ad"/>
      <path id="Path_2568" data-name="Path 2568" d="M321.844,244.388a2.279,2.279,0,1,0,.657,3.156,2.268,2.268,0,0,0-.657-3.156Z" transform="translate(-248.561 -190.542)" fill="#0033ad"/>
      <path id="Path_2569" data-name="Path 2569" d="M92.724,320.848a1.787,1.787,0,1,0,.5,2.476h0A1.759,1.759,0,0,0,92.724,320.848Z" transform="translate(-70.238 -250.303)" fill="#0033ad"/>
      <path id="Path_2570" data-name="Path 2570" d="M270.317,320.4a1.794,1.794,0,1,0,1.622,3.2,1.794,1.794,0,0,0-1.622-3.2Z" transform="translate(-210.313 -250.025)" fill="#0033ad"/>
      <path id="Path_2571" data-name="Path 2571" d="M142.72,208.155a5.54,5.54,0,1,0-7.67,1.6,5.558,5.558,0,0,0,7.67-1.6Z" transform="translate(-103.492 -155.842)" fill="#0033ad"/>
      <path id="Path_2572" data-name="Path 2572" d="M113.226,275.791a2.769,2.769,0,1,0,.789,3.835h0A2.742,2.742,0,0,0,113.226,275.791Z" transform="translate(-85.064 -214.997)" fill="#0033ad"/>
      <path id="Path_2573" data-name="Path 2573" d="M178.791,325.689a2.283,2.283,0,1,0,2.148,2.432,2.309,2.309,0,0,0-2.148-2.432Z" transform="translate(-137.722 -254.311)" fill="#0033ad"/>
      <path id="Path_2574" data-name="Path 2574" d="M175.3,260.378a3.248,3.248,0,1,0,3.068,3.419,3.227,3.227,0,0,0-3.068-3.419Z" transform="translate(-134.206 -203.31)" fill="#0033ad"/>
      <path id="Path_2575" data-name="Path 2575" d="M242.816,275.327a2.769,2.769,0,1,0,3.747,1.227,2.769,2.769,0,0,0-3.747-1.227Z" transform="translate(-188.423 -214.752)" fill="#0033ad"/>
    </g>
  </g>
</svg>
