<svg xmlns="http://www.w3.org/2000/svg" xmlns:xlink="http://www.w3.org/1999/xlink" width="141.675" height="43.236" viewBox="0 0 141.675 43.236">
  <defs>
    <linearGradient id="linear-gradient" x1="0.5" x2="0.5" y2="1" gradientUnits="objectBoundingBox">
      <stop offset="0" stop-color="#f05139"/>
      <stop offset="1" stop-color="#f08639"/>
    </linearGradient>
    <linearGradient id="linear-gradient-2" x1="0.323" y1="0.269" x2="1" y2="1.203" gradientUnits="objectBoundingBox">
      <stop offset="0" stop-color="#707070"/>
      <stop offset="1" stop-color="#b4b4b4"/>
    </linearGradient>
  </defs>
  <g id="Group_12144" data-name="Group 12144" transform="translate(-22.258 -23.427)">
    <g id="Group_11622" data-name="Group 11622" transform="translate(22.258 23.427)">
      <g id="Group_11625" data-name="Group 11625">
        <path id="Union_1" data-name="Union 1" d="M13.843,34.083H29.822l-7.988,9.153ZM34.405,13.629l9.152,7.988-9.152,7.99ZM0,21.618l9.153-7.99V29.607ZM13.843,9.153,21.832,0l7.989,9.153Z" transform="translate(0 0)" fill="url(#linear-gradient)"/>
      </g>
      <path id="Path_2175" data-name="Path 2175" d="M0,0H13.726V13.04H0Z" transform="translate(14.969 15.199)" stroke="rgba(0,0,0,0)" stroke-miterlimit="10" stroke-width="1" fill="url(#linear-gradient-2)"/>
    </g>
    <path id="Path_2579" data-name="Path 2579" d="M15.475-2.725V0H2.35V-17.5H15.125v2.725H5.6v4.55h8.45V-7.55H5.6v4.825ZM21.6-17.5h7.65a10.978,10.978,0,0,1,4.975,1.088A8.049,8.049,0,0,1,37.6-13.338,8.7,8.7,0,0,1,38.8-8.75a8.7,8.7,0,0,1-1.2,4.588,8.049,8.049,0,0,1-3.375,3.075A10.978,10.978,0,0,1,29.25,0H21.6ZM29.1-2.75a7.427,7.427,0,0,0,3.387-.737,5.276,5.276,0,0,0,2.25-2.1,6.206,6.206,0,0,0,.787-3.163,6.206,6.206,0,0,0-.787-3.162,5.276,5.276,0,0,0-2.25-2.1A7.427,7.427,0,0,0,29.1-14.75H24.85v12Zm27.6-6.2h3.075v6.975a9.777,9.777,0,0,1-3.15,1.65,12.086,12.086,0,0,1-3.7.575A9.979,9.979,0,0,1,48.1-.913a8.637,8.637,0,0,1-3.375-3.212A8.842,8.842,0,0,1,43.5-8.75a8.842,8.842,0,0,1,1.225-4.625,8.614,8.614,0,0,1,3.388-3.212,10.1,10.1,0,0,1,4.862-1.163,10.617,10.617,0,0,1,4,.725A7.849,7.849,0,0,1,60-14.9l-2.05,2a6.575,6.575,0,0,0-4.825-2,6.818,6.818,0,0,0-3.287.775,5.651,5.651,0,0,0-2.25,2.175,6.258,6.258,0,0,0-.812,3.2,6.16,6.16,0,0,0,.813,3.15,5.826,5.826,0,0,0,2.25,2.2,6.594,6.594,0,0,0,3.263.8,7.039,7.039,0,0,0,3.6-.9ZM79.675-2.725V0H66.55V-17.5H79.325v2.725H69.8v4.55h8.45V-7.55H69.8v4.825Z" transform="translate(84.258 54.427)" fill="#989898"/>
  </g>
</svg>
